<svg xmlns="http://www.w3.org/2000/svg" viewBox="0 0 512 512" role="img" aria-labelledby="title">
  <title id="title">Hair Recovery</title>
  <g fill="#6f625d">
    <path d="M256 48l17 26 31-8-10 30 26 17-31 10-8 31-25-19-26 19-8-31-31-10 26-17-10-30 31 8 18-26z"/>
    <path d="M256 96c-30 0-43 20-61 20-13 0-22-10-22-22 0-10 7-19 17-21-4 5-3 14 5 19 11 7 26-2 44-17 6-5 12-10 17-15 5 5 11 10 17 15 18 15 33 24 44 17 8-5 9-14 5-19 10 2 17 11 17 21 0 12-9 22-22 22-18 0-31-20-61-20z"/>
    <path d="M122 132c12 28 41 42 83 42h102c42 0 71-14 83-42 6 31-17 61-64 70H186c-47-9-70-39-64-70z"/>
    <path d="M256 170l94 38v72c0 76-50 118-94 142-44-24-94-66-94-142v-72l94-38zm0 35l-64 26v49c0 55 34 87 64 107 30-20 64-52 64-107v-49l-64-26z"/>
    <path d="M256 226l47 19v37c0 39-24 63-47 78-23-15-47-39-47-78v-37l47-19zm-29 37v19c0 26 14 43 29 55 15-12 29-29 29-55v-19l-29-12-29 12z"/>
    <path d="M220 265h20v32h32v-32h20v84h-20v-34h-32v34h-20v-84z"/>
    <path d="M300 265h34c19 0 32 11 32 28 0 11-6 21-17 25l21 31h-23l-18-27h-9v27h-20v-84zm20 17v24h13c8 0 13-4 13-12s-5-12-13-12h-13z"/>
    <path d="M96 184c-34 4-57 26-55 57 2 24 20 41 43 39-12-10-13-28-1-38 13-12 34-4 38 16 5 25-15 54-49 56 25 17 62 9 82-19 22-31 12-74-58-111z"/>
    <path d="M416 184c34 4 57 26 55 57-2 24-20 41-43 39 12-10 13-28 1-38-13-12-34-4-38 16-5 25 15 54 49 56-25 17-62 9-82-19-22-31-12-74 58-111z"/>
    <path d="M132 275c-48 30-64 72-36 105 17 20 45 25 67 11-18-2-28-20-21-35 8-18 34-20 47-4 17 21 8 58-24 78 33 1 67-24 77-61 10-40-15-75-110-94z"/>
    <path d="M380 275c48 30 64 72 36 105-17 20-45 25-67 11 18-2 28-20 21-35-8-18-34-20-47-4-17 21-8 58 24 78-33 1-67-24-77-61-10-40 15-75 110-94z"/>
    <path d="M177 430c20 16 50 12 69-14-8 37-34 59-67 53-18-3-33-15-42-33 11 7 27 6 40-6z"/>
    <path d="M335 430c-20 16-50 12-69-14 8 37 34 59 67 53 18-3 33-15 42-33-11 7-27 6-40-6z"/>
    <circle cx="104" cy="348" r="8"/>
    <circle cx="128" cy="348" r="8"/>
    <circle cx="104" cy="376" r="8"/>
    <circle cx="408" cy="348" r="8"/>
    <circle cx="384" cy="348" r="8"/>
    <circle cx="408" cy="376" r="8"/>
    <path d="M78 164c12 0 22 10 22 22s-10 22-22 22-22-10-22-22 10-22 22-22z"/>
    <path d="M434 164c12 0 22 10 22 22s-10 22-22 22-22-10-22-22 10-22 22-22z"/>
  </g>
</svg>
